<?xml version="1.0" encoding="UTF-8" standalone="no"?>
<svg
   xmlns:dc="http://purl.org/dc/elements/1.1/"
   xmlns:cc="http://creativecommons.org/ns#"
   xmlns:rdf="http://www.w3.org/1999/02/22-rdf-syntax-ns#"
   xmlns:svg="http://www.w3.org/2000/svg"
   xmlns="http://www.w3.org/2000/svg"
   id="svg16"
   version="1.1"
   viewBox="0 0 13.229167 13.229167"
   height="50"
   width="50">
  <defs
     id="defs10" />
  <metadata
     id="metadata13">
    <rdf:RDF>
      <cc:Work
         rdf:about="">
        <dc:format>image/svg+xml</dc:format>
        <dc:type
           rdf:resource="http://purl.org/dc/dcmitype/StillImage" />
        <dc:title></dc:title>
      </cc:Work>
    </rdf:RDF>
  </metadata>
  <g
     transform="translate(-1.7380504,-281.955)"
     id="layer1">
    <g
       id="text203"
       style="font-style:normal;font-weight:normal;font-size:4.53236246px;line-height:1.25;font-family:sans-serif;letter-spacing:0px;word-spacing:0px;fill:#000000;fill-opacity:1;stroke:none;stroke-width:0.11330906"
       transform="matrix(1.0050908,0,0,0.99493497,1.2520461,-1.6300223)"
       aria-label="བོད་">
      <path
         id="path205"
         style="font-style:normal;font-variant:normal;font-weight:normal;font-stretch:normal;font-size:10.87767029px;font-family:sans-serif;-inkscape-font-specification:'sans-serif, Normal';font-variant-ligatures:normal;font-variant-caps:normal;font-variant-numeric:normal;font-feature-settings:normal;text-align:start;writing-mode:lr-tb;text-anchor:start;stroke-width:0.11330906"
         d="m 5.8774211,288.95884 -0.2124545,0.58425 v 3.49488 q 0,0.12747 -0.053114,0.12747 -0.074359,0 -0.1380955,-0.0637 -0.3611726,-0.42491 -0.7489021,-0.73828 -0.3824181,-0.31868 -0.7754589,-0.53113 -0.3877294,-0.21246 -0.7754589,-0.31337 -0.3824181,-0.10623 -0.7382794,-0.10623 -0.1380954,0 -0.2230772,0.005 -0.084982,0 -0.1593409,0.0106 -0.069048,0.005 -0.1380954,0.0212 -0.069048,0.0159 -0.1699636,0.0372 0.00531,-0.28681 0.063736,-0.56832 0.058425,-0.28681 0.1434068,-0.54176 0.090293,-0.25494 0.1965204,-0.4674 0.1115387,-0.21776 0.2230773,-0.36648 H 1.7982947 l 0.2655681,-0.58425 z m -0.4514658,3.74982 v -0.56831 q 0,-0.47803 -0.042491,-0.91356 -0.042491,-0.44084 -0.1274727,-0.78608 -0.084982,-0.35055 -0.2124545,-0.58425 -0.1221614,-0.23901 -0.2815022,-0.31337 H 3.0145967 q -0.1593409,0.11685 -0.3027476,0.27088 -0.1434068,0.15403 -0.2602568,0.3293 -0.11685,0.16997 -0.2071431,0.35587 -0.084982,0.18058 -0.1274727,0.34523 0.090293,-0.0106 0.1699636,-0.0106 0.084982,-0.005 0.1752749,-0.005 0.4142863,0 0.7860817,0.11685 0.3717953,0.11154 0.7276566,0.34524 0.3558613,0.22839 0.7117226,0.58425 0.3558613,0.35586 0.7382794,0.83388 z" />
      <path
         id="path207"
         style="font-style:normal;font-variant:normal;font-weight:normal;font-stretch:normal;font-size:10.87767029px;font-family:sans-serif;-inkscape-font-specification:'sans-serif, Normal';font-variant-ligatures:normal;font-variant-caps:normal;font-variant-numeric:normal;font-feature-settings:normal;text-align:start;writing-mode:lr-tb;text-anchor:start;stroke-width:0.11330906"
         d="m 6.6900597,286.59528 q -0.031868,0.36649 -0.1646523,0.61081 -0.132784,0.23901 -0.3611726,0.39304 -0.2283886,0.14872 -0.5470704,0.22839 -0.3239931,0.0744 -0.7276566,0.11154 -0.2390113,0.0266 -0.4302204,0.10623 -0.191209,0.0797 -0.3239931,0.19652 -0.1380954,0.11685 -0.2124545,0.26556 -0.074359,0.14341 -0.084982,0.29744 h -0.164652 q -0.3505499,-0.5152 -0.8338839,-0.76484 -0.483334,-0.25494 -1.1100748,-0.26556 0.1327841,-0.29213 0.3133704,-0.42491 0.175275,-0.13279 0.3877295,-0.13279 0.1434068,0 0.3186817,0.0956 0.175275,0.0956 0.3505499,0.24963 0.175275,0.15403 0.3399272,0.35586 0.1593409,0.19652 0.2815022,0.40898 0.063736,-0.20183 0.1805864,-0.36649 0.1168499,-0.16996 0.2655681,-0.29212 0.1434068,-0.12747 0.308059,-0.20714 0.1593409,-0.0797 0.3133704,-0.10623 0.4355317,-0.0691 0.7170339,-0.12216 0.2815022,-0.0584 0.4727113,-0.13279 0.1858977,-0.0797 0.3027476,-0.19652 0.1221614,-0.11685 0.2337,-0.31337 0.021245,-0.0372 0.042491,-0.0531 0.026557,-0.0213 0.069048,-0.0213 0.031868,0 0.047802,0.0266 0.015934,0.0213 0.015934,0.0531 z" />
      <path
         id="path209"
         style="font-style:normal;font-variant:normal;font-weight:normal;font-stretch:normal;font-size:10.87767029px;font-family:sans-serif;-inkscape-font-specification:'sans-serif, Normal';font-variant-ligatures:normal;font-variant-caps:normal;font-variant-numeric:normal;font-feature-settings:normal;text-align:start;writing-mode:lr-tb;text-anchor:start;stroke-width:0.11330906"
         d="m 10.514241,288.95884 -0.265569,0.58425 H 7.6939072 q -0.2602568,0.20183 -0.4355318,0.44084 -0.1752749,0.23901 -0.2868135,0.47271 -0.1115386,0.22839 -0.175275,0.43023 -0.063736,0.20183 -0.095605,0.32399 0.095605,-0.0159 0.2230772,-0.0319 0.1327841,-0.0159 0.2708795,-0.0266 0.1434068,-0.0106 0.2761908,-0.0159 0.1380955,-0.0106 0.2496341,-0.0106 0.2761908,0 0.5311362,0.0159 0.2549454,0.0106 0.4886454,0.0691 0.2336999,0.0531 0.4461544,0.16996 0.2124545,0.11154 0.4036635,0.31337 0.1912091,0.20183 0.3558613,0.50458 0.1646527,0.30275 0.3080597,0.73828 0.07967,0.24432 0.143407,0.53114 0.06905,0.29212 0.127471,0.59487 0.05842,0.30806 0.100916,0.61612 0.0478,0.30806 0.08498,0.58425 0.04249,0.2815 0.06905,0.5152 0.03187,0.2337 0.05842,0.39304 0,0.0106 0.0053,0.0637 0.0053,0.0531 0.01062,0.11685 0.0053,0.069 0.01062,0.12747 0.0053,0.0584 0.0053,0.0797 0,0.0478 -0.02125,0.085 -0.01593,0.0425 -0.05311,0.0425 -0.06905,0 -0.11685,-0.0797 -0.04249,-0.0744 -0.06905,-0.1859 -0.02656,-0.10622 -0.04249,-0.21776 -0.01593,-0.11154 -0.02656,-0.18059 -0.0956,-0.54707 -0.180586,-0.99853 -0.08498,-0.45147 -0.169963,-0.81795 -0.07967,-0.36649 -0.164653,-0.65861 -0.079669,-0.29213 -0.1699628,-0.52583 -0.1858977,-0.47802 -0.4195977,-0.73828 -0.2336999,-0.26556 -0.5045794,-0.39304 -0.2708795,-0.12747 -0.5736271,-0.15403 -0.3027477,-0.0265 -0.6214294,-0.0265 -0.35055,0 -0.7382794,0.0744 -0.3877295,0.069 -0.7701476,0.16996 0.031868,-0.25495 0.058425,-0.50458 0.026557,-0.25495 0.084982,-0.54176 0.058425,-0.28681 0.1699636,-0.62143 0.1115386,-0.33461 0.3133704,-0.74359 H 6.3023302 l 0.2655681,-0.58425 z" />
      <path
         id="path211"
         style="font-style:normal;font-variant:normal;font-weight:normal;font-stretch:normal;font-size:10.87767029px;font-family:sans-serif;-inkscape-font-specification:'sans-serif, Normal';font-variant-ligatures:normal;font-variant-caps:normal;font-variant-numeric:normal;font-feature-settings:normal;text-align:start;writing-mode:lr-tb;text-anchor:start;stroke-width:0.11330906"
         d="m 12.128895,288.95884 -0.440843,0.94542 h -0.207143 l -0.435532,-0.94542 z" />
    </g>
    <flowRoot
       transform="matrix(0.26458333,0,0,0.26458333,0,247)"
       style="font-style:normal;font-weight:normal;font-size:40px;line-height:1.25;font-family:sans-serif;letter-spacing:0px;word-spacing:0px;fill:#000000;fill-opacity:1;stroke:none"
       id="flowRoot26"
       xml:space="preserve"><flowRegion
         id="flowRegion28"><rect
           y="102.60834"
           x="86.115501"
           height="47.982246"
           width="30.809652"
           id="rect30" /></flowRegion><flowPara
         id="flowPara32"></flowPara></flowRoot>    <flowRoot
       transform="matrix(0.26458333,0,0,0.26458333,0,247)"
       style="font-style:normal;font-weight:normal;font-size:40px;line-height:1.25;font-family:sans-serif;letter-spacing:0px;word-spacing:0px;fill:#000000;fill-opacity:1;stroke:none"
       id="flowRoot34"
       xml:space="preserve"><flowRegion
         id="flowRegion36"><rect
           y="61.949696"
           x="52.527931"
           height="88.135811"
           width="34.092648"
           id="rect38" /></flowRegion><flowPara
         id="flowPara40"></flowPara></flowRoot>  </g>
</svg>
