<?xml version="1.0" encoding="UTF-8" standalone="no"?>
<svg
   xmlns:dc="http://purl.org/dc/elements/1.1/"
   xmlns:cc="http://creativecommons.org/ns#"
   xmlns:rdf="http://www.w3.org/1999/02/22-rdf-syntax-ns#"
   xmlns:svg="http://www.w3.org/2000/svg"
   xmlns="http://www.w3.org/2000/svg"
   xmlns:sodipodi="http://sodipodi.sourceforge.net/DTD/sodipodi-0.dtd"
   xmlns:inkscape="http://www.inkscape.org/namespaces/inkscape"
   id="svg16"
   version="1.1"
   viewBox="0 0 13.229167 13.229167"
   height="50"
   width="50"
   sodipodi:docname="tibetan-auto.svg"
   inkscape:version="1.0.2 (e86c870879, 2021-01-15)">
  <sodipodi:namedview
     pagecolor="#ffffff"
     bordercolor="#666666"
     borderopacity="1"
     objecttolerance="10"
     gridtolerance="10"
     guidetolerance="10"
     inkscape:pageopacity="0"
     inkscape:pageshadow="2"
     inkscape:window-width="1490"
     inkscape:window-height="951"
     id="namedview19"
     showgrid="false"
     inkscape:zoom="9.8243507"
     inkscape:cx="14.205025"
     inkscape:cy="19.774184"
     inkscape:window-x="368"
     inkscape:window-y="90"
     inkscape:window-maximized="0"
     inkscape:current-layer="svg16" />
  <defs
     id="defs10">
    <rect
       x="0.29419729"
       y="0.83902476"
       width="12.517881"
       height="11.681951"
       id="rect23" />
  </defs>
  <metadata
     id="metadata13">
    <rdf:RDF>
      <cc:Work
         rdf:about="">
        <dc:format>image/svg+xml</dc:format>
        <dc:type
           rdf:resource="http://purl.org/dc/dcmitype/StillImage" />
        <dc:title></dc:title>
      </cc:Work>
    </rdf:RDF>
  </metadata>
  <text
     xml:space="preserve"
     id="text21"
     style="font-style:normal;font-weight:normal;font-size:10.5833px;line-height:1.25;font-family:sans-serif;white-space:pre;shape-inside:url(#rect23);fill:#000000;fill-opacity:1;stroke:none;"><tspan
       style="visibility:hidden"
       x="0.29492188"
       y="21.885224"><tspan>a</tspan></tspan></text>
  <g
     aria-label="ཨ་"
     transform="matrix(0.61863696,0,0,0.75088264,1.8879243,2.2955333)"
     id="text29"
     style="font-style:normal;font-weight:normal;font-size:26.2777px;line-height:1.25;font-family:sans-serif;fill:#000000;fill-opacity:1;stroke:none;stroke-width:0.656944">
    <path
       d="M 11.569386,0.46548775 11.056149,1.8768877 v 8.3914143 q 0,0.153971 -0.05132,0.256618 -0.03849,0.102647 -0.115478,0.102647 -0.153971,0 -0.243788,-0.205294 Q 9.9141986,8.97238 9.2598223,7.8304292 8.6054459,6.6756474 7.9639005,5.8288075 7.335186,4.9691366 6.6936406,4.4045766 6.0649261,3.8271858 5.3848879,3.519244 4.9742989,3.8528476 4.6022025,4.212113 4.2429371,4.5585475 3.9221644,4.9306439 5.0512843,5.1744311 5.6415061,5.6876675 6.2317279,6.2009038 6.2317279,7.009251 q 0,0.5773909 -0.2181255,1.0521345 Q 5.8083079,8.5232982 5.4362116,8.8697328 5.0641152,9.2033364 4.5252171,9.3829691 3.9991498,9.5626018 3.3704353,9.5626018 q -1.4627235,0 -2.1299308,-0.8211781 -0.65437631,-0.8211782 -0.65437631,-2.3737181 0,-0.6030527 0.19246363,-1.2189363 Q 0.97105544,4.5200548 1.2533354,3.9426639 1.5356154,3.3524421 1.8563881,2.8263749 2.1899917,2.3003077 2.4594408,1.8768877 H 1.2533354 L 1.8948808,0.46548775 H 4.1017971 Q 3.4859135,1.414975 2.9598462,2.2233222 2.4466099,3.0316694 2.0745136,3.7502003 q -0.3720964,0.7057 -0.5902218,1.3472454 -0.2052946,0.6415454 -0.2052946,1.257429 0,0.5388982 0.14114,0.8853327 0.14114,0.3464345 0.3977582,0.5517291 0.2566182,0.2052945 0.6158836,0.2822799 0.3720963,0.076986 0.834009,0.076986 0.3720964,0 0.6672073,-0.1026473 0.3079418,-0.1026472 0.5132363,-0.28228 0.2181255,-0.1796327 0.3336036,-0.410589 0.1154782,-0.2309564 0.1154782,-0.5004055 0,-0.5004054 -0.4362509,-0.8853326 Q 4.0376426,5.5721893 3.0240008,5.2899093 3.6013917,4.3660839 4.255768,3.519244 4.9229752,2.6595731 5.6928297,1.8768877 H 4.4354007 L 5.0769461,0.46548775 H 8.6054459 L 8.0537169,1.8768877 h -0.56456 Q 7.0657369,2.1335058 6.642317,2.5184331 7.8740842,3.5962294 8.8107405,5.1102766 9.7473968,6.6243238 10.478759,8.7670855 V 8.2538492 q 0,-2.7458144 -0.295111,-4.3240162 Q 9.8885368,2.3388004 9.3368077,1.8768877 L 9.862875,0.46548775 Z"
       style="stroke-width:0.656944"
       id="path103" />
    <path
       d="M 15.469982,0.46548775 14.405017,2.7493894 H 13.904611 L 12.852477,0.46548775 Z"
       style="stroke-width:0.656944"
       id="path105" />
  </g>
</svg>
